<mxfile host="app.diagrams.net" modified="2024-08-12T16:49:22.176Z" agent="Mozilla/5.0 (Windows NT 10.0; Win64; x64) AppleWebKit/537.36 (KHTML, like Gecko) Chrome/126.0.0.0 Safari/537.36 Edg/126.0.0.0" etag="dXfptXyEFS6laaBnRz6X" version="24.2.8" type="github">
  <diagram name="Page-1" id="_IevuNp81hxqBjjYBPfd">
    <mxGraphModel dx="770" dy="463" grid="1" gridSize="10" guides="1" tooltips="1" connect="1" arrows="1" fold="1" page="1" pageScale="1" pageWidth="1920" pageHeight="1200" math="0" shadow="0">
      <root>
        <mxCell id="0" />
        <mxCell id="1" parent="0" />
        <mxCell id="rUlxcKYFYfd_5JmxQtN6-1" value="Login" style="ellipse;whiteSpace=wrap;html=1;" vertex="1" parent="1">
          <mxGeometry x="250" y="200" width="140" height="70" as="geometry" />
        </mxCell>
        <mxCell id="rUlxcKYFYfd_5JmxQtN6-3" value="Password" style="ellipse;whiteSpace=wrap;html=1;" vertex="1" parent="1">
          <mxGeometry x="520" y="230" width="140" height="70" as="geometry" />
        </mxCell>
        <mxCell id="rUlxcKYFYfd_5JmxQtN6-4" value="Username" style="ellipse;whiteSpace=wrap;html=1;" vertex="1" parent="1">
          <mxGeometry x="520" y="100" width="140" height="70" as="geometry" />
        </mxCell>
        <mxCell id="rUlxcKYFYfd_5JmxQtN6-6" value="&amp;lt;&amp;lt;include&amp;gt;&amp;gt;" style="endArrow=open;endSize=12;dashed=1;html=1;rounded=0;" edge="1" parent="1" source="rUlxcKYFYfd_5JmxQtN6-3" target="rUlxcKYFYfd_5JmxQtN6-1">
          <mxGeometry width="160" relative="1" as="geometry">
            <mxPoint x="230" y="374.5" as="sourcePoint" />
            <mxPoint x="390" y="374.5" as="targetPoint" />
          </mxGeometry>
        </mxCell>
        <mxCell id="rUlxcKYFYfd_5JmxQtN6-7" value="&amp;lt;&amp;lt;include&amp;gt;&amp;gt;" style="endArrow=open;endSize=12;dashed=1;html=1;rounded=0;" edge="1" parent="1" source="rUlxcKYFYfd_5JmxQtN6-4" target="rUlxcKYFYfd_5JmxQtN6-1">
          <mxGeometry width="160" relative="1" as="geometry">
            <mxPoint x="538" y="277" as="sourcePoint" />
            <mxPoint x="420" y="193" as="targetPoint" />
          </mxGeometry>
        </mxCell>
        <mxCell id="rUlxcKYFYfd_5JmxQtN6-8" value="Check Availability" style="ellipse;whiteSpace=wrap;html=1;" vertex="1" parent="1">
          <mxGeometry x="250" y="360" width="140" height="70" as="geometry" />
        </mxCell>
        <mxCell id="rUlxcKYFYfd_5JmxQtN6-9" value="Choose Seats" style="ellipse;whiteSpace=wrap;html=1;" vertex="1" parent="1">
          <mxGeometry x="520" y="360" width="140" height="70" as="geometry" />
        </mxCell>
        <mxCell id="rUlxcKYFYfd_5JmxQtN6-10" value="&amp;lt;&amp;lt;include&amp;gt;&amp;gt;" style="endArrow=open;endSize=12;dashed=1;html=1;rounded=0;" edge="1" parent="1" source="rUlxcKYFYfd_5JmxQtN6-9" target="rUlxcKYFYfd_5JmxQtN6-8">
          <mxGeometry width="160" relative="1" as="geometry">
            <mxPoint x="524" y="375" as="sourcePoint" />
            <mxPoint x="390" y="360" as="targetPoint" />
          </mxGeometry>
        </mxCell>
      </root>
    </mxGraphModel>
  </diagram>
</mxfile>
